<?xml version="1.0" encoding="utf-8"?>
<!-- Generator: Adobe Illustrator 24.2.0, SVG Export Plug-In . SVG Version: 6.00 Build 0)  -->
<svg version="1.1" id="Layer_1" xmlns="http://www.w3.org/2000/svg" xmlns:xlink="http://www.w3.org/1999/xlink" x="0px" y="0px"
	 viewBox="0 0 125 38" style="enable-background:new 0 0 125 38;" xml:space="preserve">
<style type="text/css">
	.st0{fill:#0B36A8;}
	.st1{fill:#FFFFFF;}
</style>
<ellipse class="st0" cx="19" cy="19" rx="19" ry="19"/>
<path class="st1" d="M11.9,15.2c0-0.2-0.1-0.4-0.1-0.6c0,0.1,0,0,0-0.2s0.1-0.6,0.1-1.2c0.1-0.1,0.1-0.2,0.2-0.3
	c0-0.1,0.1-0.2,0.1-0.2c-0.1-0.1-0.1-0.2-0.2-0.3c0-0.1-0.1-0.1-0.1-0.2c0.1-0.6,0.2-1.2,0.2-1.7c0-0.2,0.1-0.4,0.3-0.5
	c0.2-0.2,0.4-0.4,0.7-0.6c0.2-0.2,0.4-0.3,0.7-0.5c0.2-0.1,0.4-0.2,0.6-0.3c0.2,0,0.3-0.1,0.5-0.2c0-0.1,0.1-0.1,0.2-0.1
	c0.2,0,0.3,0.1,0.4,0.2c0.1,0.2,0.1,0.5,0.1,0.7c0,0.2-0.1,0.5-0.1,0.7c-0.1,0.2-0.1,0.4-0.1,0.7c0,0.1,0,0.3,0,0.7s0,1,0.1,1.7
	c0,0.6,0.1,1.2,0.2,1.7c0.2,0.6,0.3,1.3,0.6,1.9c0.2,0.7,0.6,1.3,1,1.9c0.3,0.4,0.7,0.6,1.2,0.6c0.5-0.1,1-0.3,1.4-0.7
	c0.7-0.6,1.4-1.3,2-2c0.6-0.7,1.1-1.3,1.6-1.9c0.4-0.5,0.8-1.1,1.1-1.6c0.3-0.4,0.6-0.8,0.9-1.2c0.4-0.4,0.8-0.7,1.2-1l0.3-0.2
	c0.1,0,0.1-0.1,0.2-0.1c0.2,0,0.4,0.2,0.4,0.4c0.1,0.4,0.2,0.8,0.1,1.2c-0.1,0.5-0.1,1-0.1,1.5c-0.1,0.8-0.2,1.5-0.4,2.3
	c-0.2,0.8-0.4,1.7-0.7,2.5c-0.1,0.4-0.3,0.8-0.4,1.2c-0.1,0.3-0.2,0.6-0.2,0.8c0,0.1,0,0.3-0.1,0.5s-0.1,0.4-0.1,0.7
	c-0.1,0.3-0.2,0.5-0.3,0.8c-0.1,0.2-0.2,0.5-0.2,0.7c-0.1,0.3-0.1,0.6-0.2,1c0,0.1,0,0.2,0,0.3s0,0.2,0,0.3c-0.2,1-0.5,2-0.7,3
	c0,0.1-0.1,0.2-0.1,0.3c-0.2,0.1-0.3,0.1-0.4,0.3c-0.2,0.2-0.4,0.3-0.5,0.5c-0.1,0.2-0.3,0.3-0.5,0.4c-0.1,0.1-0.2,0.1-0.3,0.1
	c-0.1,0-0.1,0-0.2-0.1C22,29.2,22,29.1,22,29.1c0-0.1,0-0.1,0-0.2c0.2-0.5,0.3-1,0.4-1.5c0.1-0.6,0.2-1.4,0.3-2.4
	c0-0.2,0.1-0.7,0.2-1.6c0.1-0.9,0.4-2.1,0.7-3.7c0-0.3,0.1-0.6,0.2-0.9c0.1-0.4,0.1-0.8,0.2-1.3c0.1-0.2,0.1-0.4,0.2-0.6
	c0-0.1,0.1-0.3,0.1-0.4c0-0.1,0-0.2-0.1-0.2c0,0-0.1-0.1-0.2-0.1c-0.1,0-0.2,0.1-0.3,0.2c-0.2,0.2-0.4,0.5-0.6,0.7
	c-0.1,0.2-0.3,0.4-0.4,0.5s-0.3,0.4-0.5,0.6c-0.3,0.3-0.5,0.5-0.8,0.8l-1.1,1.1L20,20.4c-0.1,0.1-0.3,0.2-0.5,0.3
	c-0.2,0.3-0.5,0.6-0.9,0.8c-0.4,0.2-0.7,0.3-1.2,0.3c-0.4,0-0.9-0.1-1.2-0.4c-0.4-0.3-0.8-0.7-1.1-1.2c-0.2-0.3-0.3-0.5-0.5-0.8
	c-0.2-0.3-0.3-0.5-0.5-0.8l-0.1,0c-0.1,0.4-0.2,0.8-0.3,1.2c-0.1,0.8-0.3,1.9-0.5,3.3c-0.2,1.5-0.4,2.7-0.5,3.5
	c-0.1,0.5-0.1,1.1-0.2,1.7c0,0.3-0.1,0.5-0.2,0.8c-0.1,0.2-0.3,0.3-0.5,0.3c-0.2,0-0.3,0-0.5,0.1c-0.2,0-0.4,0.1-0.7,0.2
	c0,0-0.1,0-0.1-0.1c0,0-0.1-0.1-0.1-0.1l0.1-0.6l-0.1-0.6c0.1-0.3,0.1-0.6,0.2-0.9c0-0.6,0.1-1.2,0.1-1.7c0-0.2,0.1-0.4,0.1-0.6
	c0.1-0.2,0.1-0.4,0.1-0.6c0-0.1,0-0.2,0-0.3c0-0.1,0-0.2,0-0.3c0-0.8,0.1-1.6,0.3-2.4c0.1-0.8,0.2-1.6,0.3-2.5
	c0-0.2-0.1-0.5-0.1-0.7c0.1-0.4,0.1-0.8,0.2-1.4C11.6,16.5,11.7,15.9,11.9,15.2z"/>
</svg>
